#tb 0: 1/50
#media_type 0: video
#codec_id 0: rawvideo
#dimensions 0: 720x576
#sar 0: 16/15
0,         18,         18,        1,   622080, 0xd435648a
0,         19,         19,        1,   622080, 0xef4617cc
0,         20,         20,        1,   622080, 0x62085455
0,         21,         21,        1,   622080, 0x5b5ae735
0,         22,         22,        1,   622080, 0x60f943a0
0,         23,         23,        1,   622080, 0x80d2110e
0,         24,         24,        1,   622080, 0x5396f14a
0,         25,         25,        1,   622080, 0xb11be6b9
0,         26,         26,        1,   622080, 0x2df2ea4c
0,         27,         27,        1,   622080, 0x402a7334
0,         28,         28,        1,   622080, 0x706af6eb
0,         29,         29,        1,   622080, 0x4c506242
0,         30,         30,        1,   622080, 0x38f6f1c2
0,         31,         31,        1,   622080, 0x40ef0f29
0,         32,         32,        1,   622080, 0x6259b7a0
0,         33,         33,        1,   622080, 0xd7eba0ce
0,         34,         34,        1,   622080, 0x056994e9
0,         35,         35,        1,   622080, 0xc06c5c99
0,         36,         36,        1,   622080, 0x34be703b
0,         37,         37,        1,   622080, 0x18febe87
0,         38,         38,        1,   622080, 0x408de27c
0,         39,         39,        1,   622080, 0x0cb0451f
0,         40,         40,        1,   622080, 0xdff42f6d
0,         41,         41,        1,   622080, 0x02416446
0,         42,         42,        1,   622080, 0x4c39202f
0,         43,         43,        1,   622080, 0x84bb80c3
0,         44,         44,        1,   622080, 0x169beb1e
0,         45,         45,        1,   622080, 0x60751ec3
0,         46,         46,        1,   622080, 0xf5776ac0
0,         47,         47,        1,   622080, 0xd8123d7b
0,         48,         48,        1,   622080, 0xc66befc3
0,         49,         49,        1,   622080, 0x8ae04f9a
0,         50,         50,        1,   622080, 0xa9ac8298
0,         51,         51,        1,   622080, 0xc6b1d464
0,         52,         52,        1,   622080, 0xbbfd898f
0,         53,         53,        1,   622080, 0x264672da
0,         54,         54,        1,   622080, 0x86e3b9af
0,         55,         55,        1,   622080, 0x50795644
0,         56,         56,        1,   622080, 0xeeb31455
0,         57,         57,        1,   622080, 0xdfffdd20
0,         58,         58,        1,   622080, 0x1819236d
0,         59,         59,        1,   622080, 0x739f3964
0,         60,         60,        1,   622080, 0x414b01b0
0,         61,         61,        1,   622080, 0xdf966fbf
0,         62,         62,        1,   622080, 0x77e4b4f7
0,         63,         63,        1,   622080, 0x344f80cc
0,         64,         64,        1,   622080, 0xf5683a8c
0,         65,         65,        1,   622080, 0x4946b788
0,         66,         66,        1,   622080, 0xe8455a05
0,         67,         67,        1,   622080, 0xd0632a1e
0,         68,         68,        1,   622080, 0x2a03160d
0,         69,         69,        1,   622080, 0x7a234b71
0,         70,         70,        1,   622080, 0x9135bebc
0,         71,         71,        1,   622080, 0x66c60582
0,         72,         72,        1,   622080, 0x9c1e1cf0
0,         73,         73,        1,   622080, 0x4a5ba0ef
0,         74,         74,        1,   622080, 0xd84e67c9
0,         75,         75,        1,   622080, 0xdf9f4d83
0,         76,         76,        1,   622080, 0xfa864e1d
